<svg xmlns="http://www.w3.org/2000/svg" viewBox="0 0 46 48.5" width="46" height="48.5">
  <g transform="translate(-152.44, -40.82)">
    <path fill="#009b59" d="m 159.49807,41.350733 c -1.5855,-0.0226 -1.90229,1.19512 -0.11469,4.18935 4.40071,7.37083 6.33143,12.96504 6.33143,19.30153 0,6.33651 -1.93072,11.93067 -6.33143,19.3015 -1.78771,2.99428 -1.4709,4.21284 0.11469,4.18938 5.66249,-0.0836 27.51211,-16.00006 27.51211,-23.49088 0,-7.49082 -21.84962,-23.40743 -27.51211,-23.49088 z"/>
    <path fill="#00d48d" d="m 158.41234,41.680243 c 2.26169,-1.89418 17.50247,7.11743 21.09603,16.34148 5.3083,13.62552 -21.36492,25.58098 -21.33186,29.1189 0.0232,2.4896 3.38631,2.16582 5.25341,2.00338 15.75267,-1.37037 40.73836,-16.60283 40.73836,-24.30237 0,-7.69957 -40.62684,-28.48778 -45.75594,-23.16139 z"/>
  </g>
</svg>
